<svg id="gukenz" xmlns="http://www.w3.org/2000/svg" xmlns:xlink="http://www.w3.org/1999/xlink" width="62.477" height="22.281" viewBox="0 0 62.477 22.281">
  <defs>
    <clipPath id="clip-path">
      <rect id="Retângulo_149" data-name="Retângulo 149" width="62.477" height="22.281" fill="#fff"/>
    </clipPath>
  </defs>
  <path id="Caminho_52" data-name="Caminho 52" d="M44.166,11v16h2.556V24.181l1.74-2,2.864,4.83h2.837l-4.205-6.6,3.815-4.531H50.917L46.794,21h-.073V11Z" transform="translate(-20.065 -4.999)" fill="#fff"/>
  <path id="Caminho_53" data-name="Caminho 53" d="M36.87.546H59.564v9.839H48.515l-.755,0L43.231,16h-.073V6H40.6v4.381H36.87ZM36.324,0V10.931h4.825V6.55h1.464v10h.879l.164-.2,4.365-5.41H60.109V0Z" transform="translate(-16.502)" fill="#fff"/>
  <g id="Grupo_51" data-name="Grupo 51" transform="translate(0 0)">
    <g id="Grupo_50" data-name="Grupo 50" clip-path="url(#clip-path)">
      <path id="Caminho_54" data-name="Caminho 54" d="M0,20.412c0-4.848,3.072-7.731,7.014-7.731a6.09,6.09,0,0,1,4.477,1.876l-1.4,1.695A4.009,4.009,0,0,0,7.1,14.965C4.468,14.965,2.7,17,2.7,20.33c0,3.381,1.568,5.428,4.541,5.428a3.314,3.314,0,0,0,2.111-.653v-3.2H6.561V19.75h5.147v6.534a6.735,6.735,0,0,1-4.731,1.758c-4,0-6.978-2.727-6.978-7.63" transform="translate(0 -5.761)" fill="#fff"/>
      <path id="Caminho_55" data-name="Caminho 55" d="M23.851,26.917V19.939h2.61v6.643c0,1.83.525,2.519,1.731,2.519.979,0,1.622-.453,2.465-1.54V19.939h2.61V31.068H31.128l-.2-1.64h-.073a4.531,4.531,0,0,1-3.58,1.912c-2.384,0-3.426-1.613-3.426-4.422" transform="translate(-10.836 -9.059)" fill="#fff"/>
      <path id="Caminho_56" data-name="Caminho 56" d="M68,24.216c0-1.713-.761-2.755-2.284-2.755a2.793,2.793,0,0,0-2.665,2.755Zm-7.468,1.069c0-3.616,2.511-5.845,5.129-5.845,3.009,0,4.595,2.175,4.595,5.284a6.769,6.769,0,0,1-.113,1.269H63.083a3.166,3.166,0,0,0,3.281,3.1,4.748,4.748,0,0,0,2.583-.807l.888,1.622a6.907,6.907,0,0,1-3.815,1.205c-3.072,0-5.483-2.157-5.483-5.827" transform="translate(-27.502 -8.832)" fill="#fff"/>
      <path id="Caminho_57" data-name="Caminho 57" d="M79.929,19.712h2.139l.2,1.5h.073a5.194,5.194,0,0,1,3.652-1.777c2.384,0,3.425,1.614,3.425,4.423v6.978h-2.61V24.2c0-1.831-.525-2.519-1.731-2.519a3.5,3.5,0,0,0-2.537,1.386v7.776h-2.61Z" transform="translate(-36.313 -8.832)" fill="#fff"/>
      <path id="Caminho_58" data-name="Caminho 58" d="M99.156,19.94v2.075h4.658l-5.247,7.658v1.4h8.691V28.993h-5.419l5.247-7.658v-1.4Z" transform="translate(-44.78 -9.059)" fill="#fff"/>
    </g>
  </g>
</svg>
